<svg width="50" height="50" viewBox="0 0 50 50" fill="none" xmlns="http://www.w3.org/2000/svg">
<g id="audio-off-svgrepo-com 1" clip-path="url(#clip0_16_648)">
<path id="Vector" fill-rule="evenodd" clip-rule="evenodd" d="M29.4123 2.94263V47.0611H23.5299L11.7649 35.2962V14.7075L23.5299 2.94263H29.4123ZM8.8237 14.7075V35.2962H4.41185C1.99503 35.2962 0.0394531 33.3648 0.000598958 30.9574L0 30.8843V19.1194C0 16.7026 1.93141 14.747 4.33875 14.7081L4.41185 14.7075H8.8237ZM46.6133 16.5364L50 19.9199L44.9216 24.9984L50 30.0767L46.6133 33.4635L41.538 28.385L36.4596 33.4635L33.0729 30.0768L38.1514 24.9983L33.0729 19.9199L36.4596 16.5364L41.538 21.6148L46.6133 16.5364Z" fill="#F7F7F7"/>
</g>
<defs>
<clipPath id="clip0_16_648">
<rect width="50" height="50" fill="white"/>
</clipPath>
</defs>
</svg>
